<svg xmlns="http://www.w3.org/2000/svg" viewBox="0 0 320 320" role="img" aria-label="Sanova isotipo">
  <defs>
    <linearGradient id="sanova-symbol" x1="48" y1="272" x2="292" y2="48" gradientUnits="userSpaceOnUse">
      <stop offset="0" stop-color="#06B6D4"/>
      <stop offset="0.42" stop-color="#38BDF8"/>
      <stop offset="1" stop-color="#E0F2FE"/>
    </linearGradient>
  </defs>
  <!-- Geometric S: interlocking blocks + ascending arrow (blockchain + growth) -->
  <g fill="url(#sanova-symbol)">
    <path d="M72 228c0-34 30-52 58-52h34v36h-28c-12 0-20 7-20 16s8 16 20 16h42v36H130c-40 0-58-22-58-36z"/>
    <path d="M142 148h76v32h-76z"/>
    <path d="M208 92c34 0 52 22 52 36s-18 36-52 36h-34v-36h26c12 0 20-7 20-16s-8-16-20-16h-22l34-34 28 28-18 18h-12z"/>
    <path d="M252 56l44 44-24 24-12-12v12h-32V56z"/>
  </g>
</svg>
