<svg xmlns="http://www.w3.org/2000/svg" viewBox="0 0 640 160" role="img" aria-label="Sanova Global">
  <defs>
    <linearGradient id="sanova-symbol" x1="16" y1="136" x2="144" y2="16" gradientUnits="userSpaceOnUse">
      <stop offset="0" stop-color="#06B6D4"/>
      <stop offset="0.42" stop-color="#38BDF8"/>
      <stop offset="1" stop-color="#E0F2FE"/>
    </linearGradient>
  </defs>
  <g transform="translate(8 8) scale(0.45)">
    <g fill="url(#sanova-symbol)">
      <path d="M72 228c0-34 30-52 58-52h34v36h-28c-12 0-20 7-20 16s8 16 20 16h42v36H130c-40 0-58-22-58-36z"/>
      <path d="M142 148h76v32h-76z"/>
      <path d="M208 92c34 0 52 22 52 36s-18 36-52 36h-34v-36h26c12 0 20-7 20-16s-8-16-20-16h-22l34-34 28 28-18 18h-12z"/>
      <path d="M252 56l44 44-24 24-12-12v12h-32V56z"/>
    </g>
  </g>
  <text
    x="168"
    y="104"
    fill="#0B2240"
    font-family="Segoe UI, system-ui, -apple-system, BlinkMacSystemFont, sans-serif"
    font-size="72"
    font-weight="700"
    letter-spacing="6"
  >
    SANOVA
  </text>
</svg>
