<svg xmlns="http://www.w3.org/2000/svg" viewBox="0 0 720 120" role="img" aria-label="Sanova Global">
  <defs>
    <linearGradient id="sanova-symbol" x1="16" y1="104" x2="104" y2="16" gradientUnits="userSpaceOnUse">
      <stop offset="0" stop-color="#0891B2"/>
      <stop offset="0.28" stop-color="#06B6D4"/>
      <stop offset="0.58" stop-color="#38BDF8"/>
      <stop offset="1" stop-color="#E0F2FE"/>
    </linearGradient>
  </defs>
  <g transform="translate(4 4) scale(0.34)">
    <path
      fill="none"
      stroke="url(#sanova-symbol)"
      stroke-width="42"
      stroke-linecap="round"
      stroke-linejoin="round"
      d="M 86 250
         C 66 250, 52 264, 54 282
         C 56 300, 74 312, 94 302
         C 110 294, 114 276, 102 262
         C 92 250, 104 242, 120 248
         L 156 260
         C 190 274, 218 258, 220 228
         C 222 198, 196 174, 158 168
         C 120 162, 92 180, 94 208
         C 96 236, 124 252, 158 256
         L 192 258
         C 224 260, 248 238, 246 208
         C 244 178, 218 156, 182 152
         L 206 128
         L 262 72"
    />
    <path
      fill="url(#sanova-symbol)"
      d="M 262 72 L 286 48 L 248 58 L 230 78 Z"
    />
  </g>
  <text
    x="124"
    y="58"
    fill="#F8FAFC"
    font-family="Segoe UI, system-ui, -apple-system, BlinkMacSystemFont, sans-serif"
    font-size="52"
    font-weight="700"
    letter-spacing="5"
  >
    SANOVA
  </text>
  <text
    x="126"
    y="88"
    fill="#CBD5E1"
    font-family="Segoe UI, system-ui, -apple-system, BlinkMacSystemFont, sans-serif"
    font-size="22"
    font-weight="500"
    letter-spacing="1.5"
  >
    RWA Tokenization
  </text>
</svg>
