<?xml version="1.0" encoding="UTF-8" standalone="no"?>
<!-- Created with Inkscape (http://www.inkscape.org/) -->
<svg
   xmlns:svg="http://www.w3.org/2000/svg"
   xmlns="http://www.w3.org/2000/svg"
   version="1.0"
   width="788.13776"
   height="317.83463"
   id="svg2403"
   xml:space="preserve"><defs
     id="defs2406"><clipPath
       id="clipPath2424"><path
         d="M 0,0 L 611.99994,0 L 611.99994,791.99994 L 0,791.99994 L 0,0 z"
         id="path2426" /></clipPath><clipPath
       id="clipPath2434"><path
         d="M 0.01495,0.01179 L 0.98485,0.01179 L 0.98485,0.98837 L 0.01495,0.98837 L 0.01495,0.01179 z"
         id="path2436" /></clipPath><clipPath
       id="clipPath2468"><path
         d="M 35.029,689 L 144.769,689 L 144.769,741.298 L 35.029,741.298 L 35.029,689 z"
         id="path2470" /></clipPath><clipPath
       id="clipPath2476"><path
         d="M 0,0 L 611.99994,0 L 611.99994,791.99994 L 0,791.99994 L 0,0 z"
         id="path2478" /></clipPath><clipPath
       id="clipPath2486"><path
         d="M -0.36347,-18.797989 L 5.98679,-18.797989 L 5.98679,2.35408 L -0.36347,2.35408 L -0.36347,-18.797989 z"
         id="path2488" /></clipPath><clipPath
       id="clipPath2494"><path
         d="M 0,1 L 0,0 L 1,0 L 1,1"
         id="path2496" /></clipPath></defs><g
     transform="matrix(1.25,0,0,-1.25,-0.9238313,988.79352)"
     id="g2412"><g
       transform="translate(12,-8.5714286)"
       id="g2712"><g
         id="g2706"><g
           id="g2701"><g
             id="g2697"><g
               id="g2694"><path
                 d="M 556.32153,713.55646 C 556.32153,713.55646 539.40626,713.76999 531.46768,705.60849 C 523.5291,697.47071 523.5291,690.0447 523.5291,690.0447 L 523.5291,601.1223 C 523.5291,601.1223 532.689,577.80034 551.86372,577.80034 C 570.97737,577.80034 576.35117,577.80034 576.35117,577.80034 L 603.64766,619.60431 L 603.64766,627.03032 C 603.64766,627.03032 599.25091,628.14541 596.38081,625.82033 C 591.67873,622.00056 582.7631,618.34686 579.16021,618.34686 C 572.68721,618.34686 558.09244,621.33625 553.5125,630.61284 C 548.99361,639.69963 551.86372,648.64406 551.86372,648.64406 C 551.86372,648.64406 555.58874,671.82367 573.48107,671.82367 C 591.3734,671.82367 595.15949,664.94334 595.52589,660.53043 C 595.83122,656.14125 594.97629,648.64406 592.59472,648.64406 C 590.15208,648.64406 561.20681,648.64406 559.98549,648.64406 C 558.76417,648.64406 556.32153,643.7092 556.32153,639.62845 C 556.32153,635.57143 559.98549,630.68402 562.85559,629.02325 C 565.72569,627.36248 592.65579,629.02325 592.65579,629.02325 C 592.65579,629.02325 611.40304,639.2963 611.40304,640.90962 C 611.40304,644.99037 611.40304,682.04927 611.40304,691.32586 C 611.40304,692.3935 604.07512,713.55646 585.2668,713.55646 C 566.51955,713.55646 556.32153,713.55646 556.32153,713.55646 z M 417.15217,752.29986 L 417.15217,586.34145 L 443.34948,586.34145 L 443.34948,664.61118 C 443.34948,664.61118 455.99013,675.50109 465.69962,675.50109 C 475.40911,675.50109 490.43134,663.94688 490.43134,651.13522 C 490.43134,638.29984 490.43134,586.34145 490.43134,586.34145 L 520.4758,586.34145 L 520.4758,692.5833 C 520.4758,692.5833 514.30814,713.55646 490.43134,713.55646 C 466.49348,713.55646 471.07343,713.55646 468.75292,713.55646 C 466.49348,713.55646 443.34948,675.50109 443.34948,675.50109 L 443.34948,752.29986 L 417.15217,752.29986 z M 410.92344,713.55646 C 410.92344,713.55646 373.73426,714.22077 356.20833,713.55646 C 338.62133,712.89215 334.95737,694.38643 333.85818,695.66759 L 333.85818,601.83406 C 333.85818,601.83406 341.3693,590.56455 350.04066,586.34145 C 358.71203,582.14207 389.36715,583.87402 390.8938,586.34145 L 415.19806,626.29484 L 410.92344,628.14541 C 410.92344,628.14541 401.33608,620.74312 393.27538,618.86882 C 385.1536,616.99452 360.42188,622.8784 358.52884,645.25135 C 356.63579,667.6243 377.03183,675.50109 377.03183,675.50109 L 410.92344,675.50109 L 410.92344,713.55646 z M 279.93692,675.50109 C 294.34849,675.50109 306.13423,662.47591 306.13423,646.46134 C 306.13423,630.42304 294.34849,617.39785 279.93692,617.39785 C 265.46429,617.39785 253.67855,630.42304 253.67855,646.46134 C 253.67855,662.47591 265.46429,675.50109 279.93692,675.50109 z M 303.01986,586.34145 L 330.86595,586.19909 C 330.86595,586.19909 331.23234,678.01597 330.86595,686.81806 C 330.49955,695.59642 329.46143,712.29902 303.69159,713.08196 C 277.92175,713.88862 275.23484,712.82098 271.44875,711.63471 C 267.66266,710.42472 213.74141,623.51898 212.33689,618.96372 C 210.93237,614.43219 212.03156,586.34145 225.89354,586.34145 C 239.81658,586.34145 274.92951,586.34145 274.92951,586.34145 L 303.01986,626.67444 L 303.01986,586.34145 z M 88.189759,706.60495 C 110.17351,706.60495 127.94371,687.9806 127.94371,665.08569 C 127.94371,642.16706 110.17351,623.5427 88.189759,623.5427 C 66.32814,623.5427 48.557941,642.16706 48.557941,665.08569 C 48.557941,687.9806 66.32814,706.60495 88.189759,706.60495 z M 150.29386,777.92318 C 150.29386,777.92318 142.66061,790.28406 125.68427,791.01954 C 114.69239,791.49405 100.76935,780.79394 97.89925,775.5981 C 95.029149,770.37854 0.010489988,639.03532 0.7432817,619.67548 C 1.4760734,600.31564 17.719623,586.34145 17.719623,586.34145 L 92.464378,586.34145 L 124.15762,639.84198 L 124.15762,553.76662 L 150.29386,553.76662 L 150.29386,586.34145 L 178.87273,586.34145 C 178.87273,586.34145 187.3609,591.77454 195.84908,604.18287 C 204.33725,616.59119 242.07602,670.89839 242.07602,682.50005 C 242.07602,694.12545 242.07602,713.55646 227.42018,713.55646 C 212.82542,713.55646 175.75837,713.55646 175.75837,713.55646 L 150.29386,678.63283 L 150.29386,777.92318 z M 177.40715,619.60431 C 194.68882,619.60431 208.734,634.10046 208.734,651.79953 C 208.734,669.54604 194.68882,684.0422 177.40715,684.0422 C 160.12548,684.0422 146.01924,669.54604 146.01924,651.79953 C 146.01924,634.10046 160.12548,619.60431 177.40715,619.60431"
                 id="path2498"
                 style="fill:#fbb93d;fill-opacity:1;fill-rule:evenodd;stroke:none" /></g></g></g></g><path
         d="M 182.96415,564.01595 L 190.10887,564.01595 C 190.10887,562.97203 190.16994,562.30773 190.16994,561.9993 C 190.16994,560.33853 189.86461,559.05736 189.31502,558.10835 C 188.76542,557.06444 187.60517,556.35268 185.89532,555.97307 C 184.12441,555.59347 181.19324,555.40367 176.91862,555.40367 C 172.46081,555.40367 169.28538,555.49857 167.4534,555.64092 C 165.56035,555.807 164.09477,556.11542 163.17878,556.5662 C 162.32385,556.96953 161.65213,557.51522 161.22467,558.20325 C 160.7972,558.89128 160.55294,559.84029 160.43081,561.05028 C 160.30868,562.02302 160.24761,563.77869 160.24761,566.34102 C 160.24761,568.80846 160.30868,570.61158 160.43081,571.70294 C 160.49187,572.7943 160.73614,573.64841 161.04147,574.26527 C 161.65213,575.64134 162.99558,576.51918 164.94969,576.9225 C 166.96487,577.32583 170.93416,577.51564 176.97969,577.51564 C 179.97192,577.51564 182.1703,577.46819 183.57481,577.32583 C 184.91827,577.20721 186.01745,576.96996 186.81131,576.61408 C 187.9105,576.1633 188.64329,575.47526 189.07075,574.5737 C 189.49821,573.67214 189.74248,572.34352 189.74248,570.58785 C 189.74248,570.46923 189.74248,570.13707 189.68141,569.49649 L 182.59776,569.49649 C 182.53669,570.20825 182.47563,570.70648 182.41456,570.94373 C 182.35349,571.18098 182.23136,571.37079 182.04816,571.53686 C 181.8039,571.75039 181.07111,571.91647 179.97192,572.01137 C 178.87273,572.10627 177.22395,572.15372 174.96451,572.15372 C 172.70507,572.15372 171.17842,572.10627 170.3235,572.03509 C 169.46857,571.94019 168.85791,571.77412 168.49152,571.51314 C 168.06406,571.18098 167.81979,570.65903 167.63659,569.92354 C 167.4534,569.16433 167.39233,567.97807 167.39233,566.36475 C 167.39233,564.75143 167.4534,563.58889 167.57553,562.92458 C 167.75873,562.26027 168.06406,561.78577 168.43045,561.50107 C 168.85791,561.21636 169.46857,561.02656 170.38456,560.93166 C 171.23949,560.83676 172.76614,560.78931 175.02558,560.78931 C 177.71248,560.78931 179.54446,560.83676 180.46045,560.90793 C 181.37644,561.00283 181.9871,561.16891 182.29243,561.45361 C 182.71989,561.83322 182.96415,562.68733 182.96415,564.01595"
         id="path2500"
         style="fill:#808080;fill-opacity:1;fill-rule:evenodd;stroke:none" /><path
         d="M 211.0545,577.51564 C 216.12298,577.51564 219.60374,577.39701 221.49678,577.15976 C 224.18369,576.8276 225.89354,575.64134 226.50419,573.60096 C 226.93166,572.17745 227.11485,569.80492 227.11485,566.48338 C 227.11485,563.11439 226.93166,560.74186 226.50419,559.34206 C 225.89354,557.30169 224.18369,556.11542 221.49678,555.78327 C 219.60374,555.54602 216.12298,555.42739 211.11557,555.42739 C 206.04709,555.42739 202.56633,555.54602 200.67329,555.78327 C 197.92532,556.11542 196.27654,557.30169 195.66588,559.34206 C 195.23842,560.74186 194.99415,563.16184 194.99415,566.602 C 194.99415,569.87609 195.23842,572.20117 195.66588,573.60096 C 196.27654,575.64134 197.92532,576.8276 200.67329,577.15976 C 202.56633,577.39701 206.04709,577.51564 211.0545,577.51564 z M 211.11557,571.91647 C 207.32948,571.91647 205.07004,571.84529 204.27618,571.65549 C 203.42126,571.44196 202.8106,570.99118 202.56633,570.2557 C 202.261,569.52021 202.13887,568.07297 202.13887,565.91397 C 202.13887,564.60908 202.19994,563.66007 202.38313,563.06693 C 202.6274,561.97557 203.48232,561.35871 204.94791,561.19264 C 205.98603,561.07401 208.06227,561.00283 211.11557,561.00283 C 213.98567,561.00283 215.87872,561.05028 216.85577,561.14519 C 217.77176,561.24009 218.50455,561.45361 218.93201,561.78577 C 219.35948,562.07047 219.66481,562.49753 219.78694,563.06693 C 219.90907,563.63634 220.0312,564.58535 220.0312,565.86652 C 220.0312,567.40866 219.97014,568.54748 219.848,569.25924 C 219.72587,569.99472 219.54267,570.5404 219.23734,570.89628 C 218.87095,571.37079 218.19922,571.65549 217.3443,571.75039 C 216.48937,571.86902 214.41313,571.91647 211.11557,571.91647"
         id="path2502"
         style="fill:#808080;fill-opacity:1;fill-rule:evenodd;stroke:none" /><path
         d="M 232.73292,555.73582 L 232.73292,577.18348 L 249.95353,577.18348 C 253.98388,577.18348 256.42652,577.13603 257.22038,577.06486 C 258.01424,577.01741 258.8081,576.75643 259.54089,576.3531 C 260.39581,575.85487 261.00647,575.16683 261.37287,574.31272 C 261.6782,573.43489 261.8614,572.08255 261.8614,570.23197 C 261.8614,568.6661 261.73926,567.52729 261.55607,566.79181 C 261.3118,566.05632 260.94541,565.46319 260.33475,565.03613 C 259.72409,564.56163 258.74703,564.22947 257.52571,564.03967 C 258.99129,563.94477 260.09048,563.56517 260.70114,562.87713 C 261.1286,562.4738 261.3118,561.97557 261.43393,561.38244 C 261.55607,560.81303 261.61713,559.57932 261.61713,557.72874 L 261.61713,555.73582 L 254.59454,555.73582 L 254.59454,556.89836 C 254.59454,558.08462 254.53348,558.93873 254.41135,559.43696 C 254.35028,559.95892 254.16708,560.33853 253.86175,560.62323 C 253.61749,560.86048 253.25109,561.02656 252.82363,561.09774 C 252.3351,561.16891 251.35805,561.19264 249.89246,561.19264 L 239.87764,561.19264 L 239.87764,555.73582 L 232.73292,555.73582 z M 239.87764,566.55455 L 249.89246,566.55455 C 251.66338,566.57828 252.7015,566.602 253.00683,566.62573 C 253.37322,566.67318 253.61749,566.74435 253.86175,566.88671 C 254.16708,567.05278 254.41135,567.31376 254.53348,567.66964 C 254.65561,568.02552 254.71668,568.54748 254.71668,569.25924 C 254.71668,569.97099 254.65561,570.49295 254.47241,570.84883 C 254.35028,571.18098 254.10602,571.44196 253.73962,571.58431 C 253.49536,571.70294 253.19003,571.77412 252.8847,571.77412 C 252.5183,571.79784 251.54125,571.82157 249.89246,571.84529 L 239.87764,571.84529 L 239.87764,566.55455"
         id="path2504"
         style="fill:#808080;fill-opacity:1;fill-rule:evenodd;stroke:none" /><path
         d="M 267.11307,555.73582 L 267.11307,577.18348 L 283.11235,577.18348 C 286.28779,577.18348 288.30296,577.13603 289.21895,577.01741 C 291.53946,576.7327 293.12717,576.04467 293.92103,574.97703 C 294.77596,573.88567 295.14235,571.94019 295.14235,569.16433 C 295.14235,566.5071 294.83702,564.65653 294.1653,563.58889 C 293.67677,562.85341 293.06611,562.30773 292.27225,561.92812 C 291.41733,561.54852 290.31814,561.28754 288.85256,561.14519 C 287.8755,561.05028 285.98246,561.00283 283.17342,561.00283 L 274.25779,561.00283 L 274.25779,555.73582 L 267.11307,555.73582 z M 274.25779,566.34102 L 283.11235,566.34102 C 284.76114,566.36475 285.73819,566.38848 286.10459,566.4122 C 286.47098,566.43593 286.77631,566.53083 287.08164,566.67318 C 287.44804,566.83926 287.6923,567.10023 287.81443,567.47984 C 287.93657,567.83572 288.0587,568.40513 288.0587,569.16433 C 288.0587,569.92354 287.93657,570.49295 287.75337,570.84883 C 287.63124,571.20471 287.32591,571.46569 286.83738,571.60804 C 286.53205,571.72667 285.31073,571.79784 283.11235,571.84529 L 274.25779,571.84529 L 274.25779,566.34102"
         id="path2506"
         style="fill:#808080;fill-opacity:1;fill-rule:evenodd;stroke:none" /><path
         d="M 315.90478,577.51564 C 320.97326,577.51564 324.45402,577.39701 326.34707,577.15976 C 329.03397,576.8276 330.74382,575.64134 331.35448,573.60096 C 331.78194,572.17745 331.96514,569.80492 331.96514,566.48338 C 331.96514,563.11439 331.78194,560.74186 331.35448,559.34206 C 330.74382,557.30169 329.03397,556.11542 326.34707,555.78327 C 324.45402,555.54602 320.97326,555.42739 315.96585,555.42739 C 310.89737,555.42739 307.41661,555.54602 305.52357,555.78327 C 302.7756,556.11542 301.12682,557.30169 300.45509,559.34206 C 300.0887,560.74186 299.84443,563.16184 299.84443,566.602 C 299.84443,569.87609 300.0887,572.20117 300.45509,573.60096 C 301.12682,575.64134 302.7756,576.8276 305.52357,577.15976 C 307.41661,577.39701 310.83631,577.51564 315.90478,577.51564 z M 315.90478,571.91647 C 312.17976,571.91647 309.85925,571.84529 309.12646,571.65549 C 308.21047,571.44196 307.66088,570.99118 307.41661,570.2557 C 307.11128,569.52021 306.98915,568.07297 306.98915,565.91397 C 306.98915,564.60908 307.05022,563.66007 307.17235,563.06693 C 307.47768,561.97557 308.3326,561.35871 309.79819,561.19264 C 310.83631,561.07401 312.91255,561.00283 315.96585,561.00283 C 318.83595,561.00283 320.729,561.05028 321.70605,561.14519 C 322.62204,561.24009 323.35483,561.45361 323.78229,561.78577 C 324.20976,562.07047 324.45402,562.49753 324.63722,563.06693 C 324.75935,563.63634 324.82042,564.58535 324.82042,565.86652 C 324.82042,567.40866 324.82042,568.54748 324.69828,569.25924 C 324.57615,569.99472 324.33189,570.5404 324.08762,570.89628 C 323.66016,571.37079 323.0495,571.65549 322.19458,571.75039 C 321.33966,571.86902 319.26341,571.91647 315.90478,571.91647"
         id="path2508"
         style="fill:#808080;fill-opacity:1;fill-rule:evenodd;stroke:none" /><path
         d="M 337.58321,555.73582 L 337.58321,577.18348 L 354.80381,577.18348 C 358.83416,577.18348 361.2768,577.13603 362.07066,577.06486 C 362.86452,577.01741 363.59731,576.75643 364.39117,576.3531 C 365.24609,575.85487 365.85675,575.16683 366.22315,574.31272 C 366.52848,573.43489 366.71168,572.08255 366.71168,570.23197 C 366.71168,568.6661 366.58954,567.52729 366.40635,566.79181 C 366.16208,566.05632 365.79569,565.46319 365.18503,565.03613 C 364.57437,564.56163 363.59731,564.22947 362.31493,564.03967 C 363.84157,563.94477 364.94076,563.56517 365.55142,562.87713 C 365.91782,562.4738 366.16208,561.97557 366.28421,561.38244 C 366.40635,560.81303 366.40635,559.57932 366.40635,557.72874 L 366.40635,555.73582 L 359.38376,555.73582 L 359.38376,556.89836 C 359.38376,558.08462 359.38376,558.93873 359.26163,559.43696 C 359.20056,559.95892 359.01736,560.33853 358.71203,560.62323 C 358.46777,560.86048 358.10137,561.02656 357.61285,561.09774 C 357.18538,561.16891 356.20833,561.19264 354.74274,561.19264 L 344.72792,561.19264 L 344.72792,555.73582 L 337.58321,555.73582 z M 344.72792,566.55455 L 354.74274,566.55455 C 356.45259,566.57828 357.49071,566.602 357.85711,566.62573 C 358.16244,566.67318 358.46777,566.74435 358.71203,566.88671 C 359.01736,567.05278 359.26163,567.31376 359.38376,567.66964 C 359.50589,568.02552 359.56696,568.54748 359.56696,569.25924 C 359.56696,569.97099 359.50589,570.49295 359.32269,570.84883 C 359.20056,571.18098 358.9563,571.44196 358.5899,571.58431 C 358.34564,571.70294 358.04031,571.77412 357.67391,571.77412 C 357.36858,571.79784 356.33046,571.82157 354.68168,571.84529 L 344.72792,571.84529 L 344.72792,566.55455"
         id="path2510"
         style="fill:#808080;fill-opacity:1;fill-rule:evenodd;stroke:none" /><path
         d="M 397.30573,555.73582 L 395.29055,559.36579 L 379.84086,559.36579 L 377.82568,555.73582 L 369.70391,555.73582 L 382.1003,577.18348 L 393.15324,577.18348 L 405.4275,555.73582 L 397.30573,555.73582 z M 392.84791,564.0634 L 388.32903,572.20117 L 386.86345,572.20117 L 382.40563,564.0634 L 392.84791,564.0634"
         id="path2512"
         style="fill:#808080;fill-opacity:1;fill-rule:evenodd;stroke:none" /><path
         d="M 404.51152,577.18348 L 432.78506,577.18348 L 432.78506,571.72667 L 422.40385,571.72667 L 422.40385,555.73582 L 414.89273,555.73582 L 414.89273,571.72667 L 404.51152,571.72667 L 404.51152,577.18348"
         id="path2514"
         style="fill:#808080;fill-opacity:1;fill-rule:evenodd;stroke:none" /><path
         d="M 437.24288,555.73582 L 444.75399,555.73582 L 444.75399,577.18348 L 437.24288,577.18348 L 437.24288,555.73582 z"
         id="path2516"
         style="fill:#808080;fill-opacity:1;fill-rule:nonzero;stroke:none" /><path
         d="M 466.37135,577.51564 C 471.43982,577.51564 474.85952,577.39701 476.75256,577.15976 C 479.50053,576.8276 481.21038,575.64134 481.82104,573.60096 C 482.2485,572.17745 482.4317,569.80492 482.4317,566.48338 C 482.4317,563.11439 482.2485,560.74186 481.82104,559.34206 C 481.21038,557.30169 479.50053,556.11542 476.75256,555.78327 C 474.85952,555.54602 471.43982,555.42739 466.43241,555.42739 C 461.36394,555.42739 457.82211,555.54602 455.92907,555.78327 C 453.24216,556.11542 451.53232,557.30169 450.92166,559.34206 C 450.49419,560.74186 450.311,563.16184 450.311,566.602 C 450.311,569.87609 450.49419,572.20117 450.92166,573.60096 C 451.53232,575.64134 453.24216,576.8276 455.92907,577.15976 C 457.82211,577.39701 461.30287,577.51564 466.37135,577.51564 z M 466.37135,571.91647 C 462.58526,571.91647 460.32582,571.84529 459.59303,571.65549 C 458.67704,571.44196 458.12744,570.99118 457.82211,570.2557 C 457.57785,569.52021 457.45572,568.07297 457.45572,565.91397 C 457.45572,564.60908 457.51678,563.66007 457.63891,563.06693 C 457.94424,561.97557 458.79917,561.35871 460.26475,561.19264 C 461.30287,561.07401 463.37912,561.00283 466.43241,561.00283 C 469.30252,561.00283 471.19556,561.05028 472.11155,561.14519 C 473.08861,561.24009 473.76033,561.45361 474.24886,561.78577 C 474.67632,562.07047 474.92059,562.49753 475.10378,563.06693 C 475.22592,563.63634 475.28698,564.58535 475.28698,565.86652 C 475.28698,567.40866 475.22592,568.54748 475.16485,569.25924 C 475.04272,569.99472 474.79845,570.5404 474.49312,570.89628 C 474.12673,571.37079 473.51607,571.65549 472.66114,571.75039 C 471.80622,571.86902 469.66891,571.91647 466.37135,571.91647"
         id="path2518"
         style="fill:#808080;fill-opacity:1;fill-rule:evenodd;stroke:none" /><path
         d="M 488.04977,577.18348 L 500.50723,577.18348 L 512.78149,561.19264 L 513.51428,561.19264 L 513.33108,577.18348 L 520.59794,577.18348 L 520.59794,555.73582 L 508.20154,555.73582 L 495.92728,571.75039 L 495.13342,571.75039 L 495.25556,555.73582 L 488.04977,555.73582 L 488.04977,577.18348"
         id="path2520"
         style="fill:#808080;fill-opacity:1;fill-rule:evenodd;stroke:none" /></g></g></svg>