<svg width="103" height="42" viewBox="0 0 103 42" fill="none" xmlns="http://www.w3.org/2000/svg">
<g clip-path="url(#clip0_153_2282)">
<path d="M13.965 -0.46875H11.8203V37.4667H13.965V-0.46875Z" fill="#0f172a"/>
<path d="M5.29141 15.0073C5.29141 15.0073 10.5839 15.3459 10.9795 19.9031V37.4651H8.83909V27.8391C8.83909 27.8391 8.89177 26.2061 6.64168 26.2061H0V14.9492L5.29141 15.0062V15.0073Z" fill="#0f172a"/>
<path d="M16.9104 -0.46875H14.7656V37.4667H16.9104V-0.46875Z" fill="#0f172a"/>
<path d="M23.4416 15.0112C23.4416 15.0112 18.1502 15.3498 17.7578 19.907V37.4691H19.8972V27.843C19.8972 27.843 19.8402 26.21 22.0903 26.21H28.733V14.9531L23.4416 15.0101V15.0112Z" fill="#0f172a"/>
<path d="M38.6561 20.2694C38.3733 19.7953 37.9132 19.5587 37.2768 19.5587C36.5146 19.5587 35.9889 19.9167 35.704 20.6349C35.5556 21.0154 35.4804 21.5014 35.4804 22.084C35.4804 23.0129 35.7287 23.6644 36.2286 24.0385C36.5221 24.2589 36.8725 24.3685 37.2768 24.3685C37.8627 24.3685 38.3099 24.1449 38.6195 23.6955C38.9281 23.2451 39.0818 22.6474 39.0818 21.8991C39.0818 21.2853 38.941 20.7424 38.6561 20.2694ZM40.2568 18.7675C40.9072 19.4555 41.233 20.4639 41.233 21.7981C41.233 23.2032 40.9158 24.2729 40.2794 25.0125C39.6419 25.7478 38.8238 26.1176 37.8197 26.1176C37.1832 26.1176 36.6522 25.9575 36.2307 25.6403C35.9996 25.4662 35.7738 25.2081 35.5524 24.8717V29.03H33.4883V17.9096H35.4879V19.0889C35.7115 18.7417 35.9523 18.4686 36.2082 18.2698C36.6747 17.9139 37.2305 17.7344 37.8734 17.7344C38.813 17.7344 39.6064 18.0816 40.2568 18.7675Z" fill="#0f172a"/>
<path d="M44.7458 15.0977H42.6602V25.8837H44.7458V15.0977Z" fill="#0f172a"/>
<path d="M48.7672 17.9084V22.7171C48.7672 23.1729 48.8209 23.5148 48.9274 23.7427C49.1177 24.148 49.4896 24.3512 50.0433 24.3512C50.7496 24.3512 51.2387 24.062 51.5021 23.4879C51.6354 23.1751 51.701 22.7633 51.701 22.2505V17.9084H53.8178V25.8864H51.7902V24.7586C51.7709 24.7855 51.7236 24.8565 51.643 24.9801C51.5656 25.1027 51.4753 25.208 51.3677 25.3015C51.0409 25.595 50.727 25.7939 50.4217 25.9014C50.1175 26.0079 49.7627 26.0638 49.3531 26.0638C48.1759 26.0638 47.3825 25.638 46.9751 24.7877C46.7472 24.32 46.6289 23.6298 46.6289 22.715V17.9062H48.7672V17.9084Z" fill="#0f172a"/>
<path d="M57.3735 23.3384C57.4176 23.7093 57.5144 23.9727 57.6584 24.1307C57.9196 24.4091 58.4002 24.5467 59.1001 24.5467C59.515 24.5467 59.8397 24.4876 60.0827 24.3651C60.3256 24.2414 60.4449 24.0608 60.4449 23.8168C60.4449 23.5727 60.3482 23.4029 60.1504 23.2825C59.959 23.1578 59.2301 22.9471 57.9723 22.6503C57.0639 22.4278 56.4253 22.1461 56.0544 21.8086C55.6835 21.4785 55.4986 20.9991 55.4986 20.3755C55.4986 19.638 55.7889 19.0048 56.3662 18.4759C56.9467 17.9481 57.7605 17.6836 58.813 17.6836C59.8655 17.6836 60.6245 17.8814 61.2523 18.2802C61.8791 18.6759 62.2392 19.365 62.336 20.3422H60.2482C60.2181 20.0702 60.1429 19.8595 60.0214 19.7015C59.7892 19.4209 59.3989 19.28 58.8453 19.28C58.3916 19.28 58.0691 19.351 57.8756 19.4908C57.681 19.6316 57.5842 19.7982 57.5842 19.9885C57.5842 20.2293 57.6896 20.4013 57.8949 20.5067C58.1003 20.6163 58.8259 20.812 60.0698 21.0861C60.904 21.2807 61.5232 21.5764 61.9403 21.9731C62.3489 22.3708 62.5564 22.8718 62.5564 23.4717C62.5564 24.2618 62.2618 24.9069 61.6737 25.4079C61.0835 25.9078 60.1697 26.1582 58.9388 26.1582C57.7079 26.1582 56.7554 25.8938 56.1566 25.3627C55.5556 24.8359 55.2578 24.1597 55.2578 23.3395H57.3735V23.3384Z" fill="#0f172a"/>
<path d="M69.1142 20.2654C68.8314 19.7913 68.3702 19.5548 67.7349 19.5548C66.9694 19.5548 66.4459 19.9128 66.1589 20.631C66.0137 21.0115 65.9374 21.4975 65.9374 22.0801C65.9374 23.009 66.1868 23.6605 66.6846 24.0346C66.9802 24.255 67.3307 24.3646 67.7349 24.3646C68.3208 24.3646 68.7691 24.141 69.0765 23.6916C69.3862 23.2412 69.5399 22.6435 69.5399 21.8952C69.5399 21.2814 69.3958 20.7385 69.1142 20.2654ZM70.7149 18.7636C71.3664 19.4516 71.6911 20.46 71.6911 21.7942C71.6911 23.1993 71.3739 24.2689 70.7375 25.0086C70.1011 25.7439 69.283 26.1137 68.2799 26.1137C67.6413 26.1137 67.1103 25.9536 66.6899 25.6364C66.4566 25.4623 66.232 25.2042 66.0126 24.8678V29.0261H63.9453V17.9057H65.9438V19.085C66.1707 18.7378 66.4115 18.4647 66.6663 18.2658C67.1339 17.91 67.6887 17.7305 68.3305 17.7305C69.2701 17.7305 70.0634 18.0777 70.7149 18.7636Z" fill="#0f172a"/>
<path d="M75.1491 19.8723C74.8545 20.1755 74.6696 20.5894 74.5943 21.1086H78.1861C78.1506 20.555 77.9646 20.1346 77.6324 19.8486C77.2981 19.5605 76.8864 19.4186 76.394 19.4186C75.8586 19.4186 75.4447 19.5702 75.1491 19.8723ZM78.2689 18.0716C78.8268 18.321 79.2837 18.7134 79.6482 19.252C79.9761 19.7261 80.1846 20.2754 80.2846 20.9011C80.3405 21.2699 80.3642 21.7945 80.3534 22.4847H74.5438C74.575 23.2845 74.8513 23.8446 75.377 24.1693C75.6952 24.3671 76.079 24.4671 76.5273 24.4671C77.0035 24.4671 77.3884 24.3467 77.6873 24.1016C77.8496 23.9693 77.9904 23.7855 78.1162 23.5522H80.2438C80.1911 24.0242 79.9309 24.5058 79.4729 24.9939C78.758 25.7711 77.755 26.156 76.4714 26.156C75.4082 26.156 74.4707 25.8302 73.6601 25.1766C72.8485 24.5219 72.4453 23.4555 72.4453 21.9816C72.4453 20.6001 72.8098 19.5401 73.5419 18.8005C74.274 18.0651 75.2276 17.6953 76.3961 17.6953C77.0895 17.6953 77.7152 17.82 78.271 18.0705" fill="#0f172a"/>
<path d="M80.4961 19.4678V17.9821H81.6066V15.7578H83.6707V17.9821H84.9672V19.4678H83.6707V23.682C83.6707 24.0089 83.7148 24.2153 83.7954 24.2948C83.8804 24.3744 84.133 24.4174 84.5566 24.4174C84.6211 24.4174 84.6866 24.412 84.7587 24.412C84.8296 24.4098 84.8984 24.4045 84.9683 24.4012V25.9579L83.9803 25.9966C82.9956 26.03 82.3215 25.8579 81.9603 25.4817C81.7249 25.243 81.6077 24.8753 81.6077 24.3776V19.4667H80.4972L80.4961 19.4678Z" fill="#0f172a"/>
<path d="M90.6503 17.7209C90.6772 17.7263 90.7374 17.7317 90.8299 17.7327V19.8678C90.6966 19.8549 90.5826 19.8441 90.4794 19.842C90.3762 19.8355 90.2934 19.8334 90.2289 19.8334C89.3914 19.8334 88.8281 20.1086 88.5411 20.6536C88.3766 20.9622 88.2981 21.4341 88.2981 22.0716V25.8849H86.1953V17.9069H88.1863V19.2991C88.5099 18.7691 88.7883 18.4025 89.0292 18.2079C89.4172 17.8843 89.9279 17.7188 90.5504 17.7188C90.5901 17.7188 90.6224 17.7209 90.6493 17.7209" fill="#0f172a"/>
<path d="M96.9419 23.7558C97.2719 23.3226 97.4332 22.7055 97.4332 21.9078C97.4332 21.1101 97.2708 20.492 96.9419 20.0619C96.6161 19.6308 96.1485 19.4169 95.5378 19.4169C94.9272 19.4169 94.4574 19.6308 94.1284 20.0619C93.7984 20.493 93.635 21.1101 93.635 21.9078C93.635 22.7055 93.7984 23.3226 94.1284 23.7558C94.4574 24.1869 94.9294 24.4062 95.5378 24.4062C96.1463 24.4062 96.6161 24.1869 96.9419 23.7558ZM98.6146 24.9094C97.9384 25.7393 96.9161 26.1543 95.5454 26.1543C94.1747 26.1543 93.1523 25.7393 92.4782 24.9094C91.8052 24.0773 91.4688 23.0764 91.4688 21.9067C91.4688 20.7371 91.8052 19.7577 92.4782 18.917C93.1523 18.0709 94.1747 17.6484 95.5454 17.6484C96.9161 17.6484 97.9384 18.0709 98.6146 18.917C99.2865 19.7577 99.6241 20.7564 99.6241 21.9067C99.6241 23.057 99.2865 24.0762 98.6146 24.9094Z" fill="#0f172a"/>
<path d="M103.158 15.0977H101.07V25.8837H103.158V15.0977Z" fill="#0f172a"/>
</g>
<defs>
<clipPath id="clip0_153_2282">
<rect width="103" height="42" fill="none"/>
</clipPath>
</defs>
</svg>
