<svg version="1.2" xmlns="http://www.w3.org/2000/svg" viewBox="0 0 1550 388" width="1550" height="388">
	<title>YPF_S</title>
	<style>
		.s0 { fill: #0063c2 } 
	</style>
	<g id="Layer">
		<g id="a">
		</g>
		<g id="a">
		</g>
		<g id="a">
		</g>
		<g id="a">
		</g>
		<g id="a">
		</g>
		<g id="b">
		</g>
	</g>
	<g id="c">
	</g>
	<g id="d">
	</g>
	<g id="d">
	</g>
	<g id="d">
	</g>
	<g id="d">
	</g>
	<g id="d">
	</g>
	<g id="e">
	</g>
	<g id="f">
	</g>
	<g id="g">
	</g>
	<g id="h">
	</g>
	<g id="h">
	</g>
	<path id="Layer" fill-rule="evenodd" class="s0" d="m225.6 334.4c0-0.3 0-138.2 0-138.2 0 0-122.2-113-154.5-143.2-37.1-34.4-70.8-52.7-70.8-52.7h194.1c0 0 5.3 18.6 40.9 52.7 6.2 6 64.9 61.6 64.9 61.6 0 0 52.3-50.2 64.2-61.4 35.6-34.3 41.4-52.9 41.4-52.9h193.9c0 0-33.7 18.6-70.7 52.7-10.4 9.8-154.5 143.2-154.5 143.2v138.2c0 34.3 13.8 52.7 13.8 52.7h-176.5c0 0 13.8-18.4 13.8-52.7zm904.3 0c0-8.8 0-189.3 0-281.4 0-34.1-13.7-52.7-13.7-52.7h433.7v95.4c0 0-18.6-13.8-52.9-13.8-30.3 0-217.9 0-217.9 0v85.9h166.5c34.2 0 52.9-9.1 52.9-9.1v90.4c0 0-18.7-9.1-52.9-9.1-7.1 0-166.5 0-166.5 0v94.4c0 34.3 13.6 52.7 13.6 52.7h-176.5c0 0 13.7-18.4 13.7-52.7zm-495.9 0v-281.4c0-34.1-13.7-52.7-13.7-52.7h277.2c134.8 0 173.1 59.6 173.1 122 0 60-49 127-183.7 127h-103.9c0 0 0 50.7 0 85.1 0 34.3 13.8 52.7 13.8 52.7h-176.5c0 0 13.7-18.4 13.7-52.7zm207.9-157.1c58.3 0 88.5-20.4 88.5-53.4 0-33.6-21.9-51.5-76.4-51.5h-71v104.9z"/>
</svg>