<svg version="1.2" xmlns="http://www.w3.org/2000/svg" viewBox="0 0 1600 1033" width="1600" height="1033">
	<title>YPF_BIG copy-svg</title>
	<style>
		.s0 { fill: #0063c2 } 
	</style>
	<g id="Layer">
		<g id="a">
		</g>
		<g id="a">
		</g>
		<g id="a">
		</g>
		<g id="a">
		</g>
		<g id="a">
		</g>
		<g id="b">
		</g>
	</g>
	<g id="c">
	</g>
	<g id="d">
	</g>
	<g id="d">
	</g>
	<g id="d">
	</g>
	<g id="d">
	</g>
	<g id="d">
	</g>
	<g id="e">
	</g>
	<g id="f">
	</g>
	<g id="g">
	</g>
	<g id="h">
	</g>
	<g id="h">
	</g>
	<path id="Layer" fill-rule="evenodd" class="s0" d="m601.6 892c0-0.8 0-368.6 0-368.6 0 0-325.9-301.5-412-382-98.9-91.8-188.8-140.6-188.8-140.6h517.6c0 0 14.1 49.6 109.1 140.6 16.5 16 173 164.3 173 164.3 0 0 139.5-133.9 171.2-163.8 95-91.5 110.4-141.1 110.4-141.1h517.1c0 0-89.9 49.6-188.5 140.6-27.8 26.1-412 382-412 382v368.6c0 91.5 36.8 140.6 36.8 140.6h-470.7c0 0 36.8-49.1 36.8-140.6z"/>
</svg>